<?xml version="1.0" encoding="UTF-8" standalone="no"?>
<svg
   version="1.1"
   id="Contours"
   x="0px"
   y="0px"
   width="1554.3011"
   height="616.98755"
   viewBox="0 0 1554.3011 351.4486"
   enable-background="new 0 0 1896.000000 1896.000000"
   xml:space="preserve"
   stroke="#000000"
   fill="none"
   stroke-linecap="round"
   stroke-linejoin="round"
   xmlns="http://www.w3.org/2000/svg"
   xmlns:svg="http://www.w3.org/2000/svg"
   xmlns:rdf="http://www.w3.org/1999/02/22-rdf-syntax-ns#"
   xmlns:cc="http://creativecommons.org/ns#"
   xmlns:dc="http://purl.org/dc/elements/1.1/"><title
     id="title19">Aggregio Logo</title><defs
     id="defs8" /><path
     d="m 677.54648,483.68209 c -182.31634,0 -364.13306,0.1687 -545.94855,-0.22534 -21.38601,-0.0463 -42.7929,-2.21595 -63.46786,-9.47004 C 43.67909,465.40767 25.55258,450.24196 14.61368,426.80458 9.3956898,415.62478 5.8629598,403.81124 4.5882598,391.4775 c -1.19519,-11.56446 -2.57337,-23.14875 -2.9296,-34.75312 -0.71161998,-23.18145 -0.86098998,-46.38195 -1.08351998,-69.57611 -0.15029,-15.66375 -0.02866,-31.33007 -0.02866,-46.9953 0,-79.71637 -0.13109,-159.433167 0.1113,-239.1488379 0.0481,-15.8230291 2.30983998,-31.4835191 5.67472998,-47.0566691 2.57951,-11.93836 5.9947602,-23.48044 11.3106302,-34.34647 8.19719,-16.75564 20.21521,-30.251013 37.01297,-38.851863 9.46135,-4.84446 19.59464,-7.6611 30.22081,-9.16424 25.84565,-3.65595 51.79261,-1.72598 77.67829,-1.78894 110.15573,-0.26793 220.31262,-0.0172 330.46887,-0.13326 259.00446,-0.27282 518.00872,-0.64119 777.01312,-1.02143 5.5285,-0.008 11.0578,-0.93859 16.584,-0.91018 48.3579,0.24858 96.7202,0.30509 145.0697,1.11121 18.2798,0.30476 36.647,2.41124 54.1268,8.01675 19.871,6.3723 37.1479,17.18259 48.6269,35.325023 6.5014,10.27576 10.6947,21.54794 13.1831,33.53864 2.9405,14.16909 3.9774,28.41186 4.001,42.85571 0.042,25.85995 0.7502,51.71829 0.8768,77.57883 0.1669,34.053167 -0.089,68.108397 0.077,102.161567 0.1708,35.02612 0.731,70.05023 0.9319,105.07629 0.159,27.72034 0.637,55.45984 -0.1651,83.15784 -0.6093,21.04113 -3.5767,41.97308 -10.8639,61.9209 -8.44,23.10321 -23.3089,41.05102 -45.486,51.9967 -9.8445,4.85883 -20.6304,7.54468 -31.645,9.3479 -16.0371,2.62543 -32.1184,2.86859 -48.2752,2.88812 -246.3441,0.29804 -492.68852,0.64222 -739.53272,0.97553"
     id="path2"
     style="fill:#321900;fill-opacity:1" /><path
     d="m 1236.5465,119.18209 c 3.1124,-9.61911 -5.6979,-21.526317 -17.2167,-21.254347 -11.2933,0.26664 -20.6279,8.751327 -18.7917,22.111827 0.9022,6.56555 9.8277,14.27042 16.4366,14.70831 9.3892,0.62213 16.0967,-4.08432 19.5718,-15.56579 z"
     id="path18"
     style="fill:#ffffff" /><path
     d="m 1231.5465,250.18208 c 0.6666,-2.05561 1.9056,-4.10889 1.9142,-6.16724 0.1247,-30.31226 0.1064,-60.62524 0.023,-90.93784 0,-1.4617 -0.6136,-3.14755 -1.4763,-4.34258 -4.1127,-5.69578 -10.4922,-5.91541 -16.2325,-4.84415 -8.7186,1.62723 -12.4292,1.15335 -12.3059,14.3092 0.2573,27.47895 0.078,54.96198 0.078,82.44336 0,0.99933 -0.07,2.0044 0.012,2.99701 0.4861,5.9223 3.2618,7.71533 9.1707,7.17145 3.6901,-0.33966 7.4721,-1.96869 11.399,0.60242 1.5024,0.9837 4.5664,-0.41736 7.4187,-1.23163"
     id="path17"
     style="fill:#ffffff" /><path
     d="m 884.54648,204.18208 c 0.3334,14.02667 0.5458,28.05884 1.1726,42.07232 0.068,1.53058 2.4374,4.12 3.8858,4.22638 6.3552,0.46692 12.8098,0.65168 19.135,0.0138 3.2247,-0.32532 7.1223,-1.08405 6.9342,-6.57788 -0.4121,-12.04132 -0.234,-24.10785 -0.083,-36.16144 0.076,-6.03101 0.1681,-12.12427 1.0618,-18.06775 1.3296,-8.8418 9.4736,-15.3822 18.1273,-16.11462 4.4712,-0.37848 9.3851,-0.95624 13.1334,-3.11805 5.0871,-2.93396 6.4633,-12.6712 3.7484,-20.04199 -0.774,-2.10178 -2.2492,-5.11035 -3.9335,-5.51965 -9.7039,-2.35813 -19.3921,-2.27805 -27.801,4.08676 -2.2559,1.70755 -2.5411,1.44009 -4.4449,-0.4913 -1.9998,-2.02866 -5.4333,-3.47046 -8.3213,-3.62155 -5.6615,-0.29624 -11.3852,0.40316 -17.0715,0.84124 -4.1113,0.31678 -6.6459,1.92649 -5.632,6.82761 0.5072,2.45184 0.088,5.09534 0.088,7.6521 0,14.33136 0,28.66266 0,43.99402"
     id="path16"
     style="fill:#ffffff" /><path
     d="m 1255.0465,171.68208 c -1.5,4.04016 -3.1025,8.04571 -4.4792,12.12756 -3.1849,9.44269 -2.9212,19.21149 -0.5947,28.56897 2.9317,11.79138 9.3422,21.61853 19.0619,29.53076 10.1336,8.24903 21.6458,12.23444 34.2203,12.61914 17.9576,0.54944 33.9393,-5.0213 45.9368,-19.07647 12.3206,-14.43354 16.6996,-31.12159 12.7983,-49.82319 -2.6662,-12.78045 -9.0789,-23.24426 -19.342,-31.36056 -9.3328,-7.38074 -19.8586,-11.70081 -31.7468,-12.58005 -10.2016,-0.75448 -20.1083,0.8581 -29.353,5.07791 -11.3152,5.16483 -20.7479,12.64542 -26.5016,24.91593"
     id="path15"
     style="fill:#ffffff" /><path
     d="m 1028.0465,144.68208 c -10.426,-4.55823 -21.2263,-4.62232 -31.98852,-1.92398 -13.2465,3.32122 -24.2318,10.19781 -32.5845,21.37515 -10.389,13.90259 -12.6794,29.21674 -8.861,45.63928 3.3869,14.56622 10.7117,26.69769 23.5577,35.05585 12.5606,8.17273 25.98682,10.94134 41.02282,9.08002 13.1064,-1.6225 23.8951,-7.21155 33.6307,-15.36615 2.0094,-1.68317 3.1867,-5.06128 3.5746,-7.82294 0.6671,-4.74817 -6.7284,-11.96088 -13.3722,-12.901 -3.4995,-0.49512 -7.5032,-0.37891 -10.7394,0.86535 -5.7331,2.20429 -10.8068,6.22779 -16.6015,8.14637 -11.0788,3.66827 -23.68982,-2.94763 -28.21512,-13.95063 -1.4033,-3.41204 -1.1161,-4.25348 2.7864,-4.28161 22.02362,-0.15875 44.04742,-0.51013 66.06472,-1.05243 1.7662,-0.0435 4.6868,-1.73059 5.0329,-3.1507 2.5303,-10.37756 0.6592,-20.28802 -3.5473,-30.06793 -5.865,-13.63544 -15.7489,-23.08679 -29.7603,-29.64465"
     id="path14"
     style="fill:#ffffff" /><path
     d="m 619.54648,250.18202 c 1.26453,-0.16663 2.79077,0.0392 3.71564,-0.61066 0.82959,-0.58295 1.67584,-2.37714 1.35779,-3.17651 -7.16877,-18.01673 -14.56403,-35.94318 -21.77326,-53.94397 -5.20752,-13.00275 -10.05218,-26.15192 -15.34491,-39.11905 -5.05926,-12.39499 -10.38074,-24.68653 -15.78338,-36.93689 -6.12,-13.87699 -20.70728,-15.1695 -32.03559,-10.34299 -6.79785,2.89624 -9.52734,9.00415 -12.15961,15.276 -7.26605,17.31259 -14.95233,34.45539 -21.90179,51.89276 -9.63116,24.1662 -18.65167,48.57544 -28.2102,72.77136 -0.98651,2.49726 -0.55506,2.82532 1.43615,3.74213 5.44403,2.50672 10.92334,3.05243 16.87177,2.03577 9.64795,-1.64893 20.14166,-9.57923 21.56586,-18.76209 0.94634,-6.10235 4.60986,-7.84051 9.13684,-9.23413 2.70636,-0.83313 5.69006,-1.02337 8.55279,-1.0462 12.99188,-0.10388 25.98651,-0.16248 38.97717,8.5e-4 7.14856,0.0899 12.09546,5.31928 12.64173,12.2378 0.62243,7.88366 5.91339,14.06628 13.83154,15.49957 6.02283,1.09015 12.40125,0.21631 19.12146,-0.28375"
     id="path13"
     style="fill:#ffffff" /><path
     d="m 710.04648,286.68208 c 4.4751,-2.4751 9.32068,-4.46131 13.35437,-7.51874 11.22827,-8.51074 13.0047,-21.3548 14.02515,-34.08203 0.90716,-11.3147 1.10095,-22.7132 1.05151,-34.07227 -0.0878,-20.19421 -0.59772,-40.38659 -0.93066,-60.57971 -0.003,-0.16663 0.001,-0.33331 -6.1e-4,-0.49994 -0.037,-3.44049 -1.77478,-5.20587 -5.21607,-5.24219 -2.49945,-0.0264 -5.00281,-0.0894 -7.49847,0.0115 -6.16425,0.24927 -12.83679,-1.39212 -17.55054,4.60779 -0.20123,0.25616 -1.63025,-0.25846 -2.36572,-0.64524 -9.26355,-4.87149 -19.1261,-6.49826 -29.52454,-6.02761 -12.65942,0.57299 -23.63647,5.18466 -32.82702,13.65207 -8.82953,8.1347 -13.98706,18.3327 -16.10743,30.30664 -3.18164,17.96765 1.61005,33.33953 13.98151,46.40789 8.2666,8.73236 18.26044,13.98035 30.44898,15.86682 13.0697,2.02283 24.39782,-0.66821 34.67425,-8.69158 0.56177,-0.43854 1.17487,-0.81128 1.76404,-1.21467 0.0737,0.80268 0.38208,1.67035 0.18091,2.39692 -0.90766,3.27765 -1.86573,6.54791 -2.98041,9.76019 -1.96601,5.66626 -12.06812,14.70386 -20.24066,14.75171 -9.19879,0.0538 -16.62281,-2.69562 -22.61811,-9.56055 -3.34149,-3.82623 -7.88616,-5.97064 -12.50384,-4.4035 -4.60877,1.5639 -8.95044,4.51459 -12.77496,7.63476 -4.59467,3.74848 -4.5785,6.39313 -1.2215,11.24659 9.48059,13.70709 23.07342,19.83282 39.24994,20.85901 11.96478,0.75898 23.66369,-1.05468 35.62988,-4.96386"
     id="path12"
     style="fill:#ffffff" /><path
     d="m 1137.0465,263.68208 c -10.0696,4.22351 -19.495,3.77411 -27.8889,-3.90271 -2.1719,-1.98645 -4.0054,-4.46271 -6.4376,-6.0224 -7.3335,-4.70233 -22.9632,0.9046 -25.8077,9.16357 -0.3995,1.16022 -0.1093,2.86505 0.481,3.99384 1.158,2.21411 2.4628,4.49115 4.2131,6.23309 11.1375,11.0835 24.8942,16.96576 40.2947,18.40405 13.8721,1.29566 27.1924,-1.15765 39.2721,-8.83239 10.2628,-6.52039 17.8851,-14.84443 19.3048,-27.38959 0.8467,-7.48328 1.338,-15.03919 1.4319,-22.56946 0.3396,-27.24438 0.5232,-54.49188 0.4545,-81.73743 0,-1.78357 -2.3283,-4.63818 -4.0866,-5.1195 -3.8315,-1.04895 -8.0681,-1.52216 -12.0039,-1.06528 -5.272,0.612 -10.9906,1.09906 -14.1875,6.64511 -0.1564,0.27121 -2.0199,-0.006 -2.6903,-0.5339 -6.8275,-5.37327 -14.7204,-8.49576 -23.1813,-9.1409 -18.1827,-1.38645 -33.8801,3.97751 -44.723,19.5097 -9.7695,13.99506 -13.2775,29.50159 -9.4531,46.32568 3.5929,15.80591 12.2683,28.08173 26.3176,36.30164 9.7405,5.69897 20.4343,7.37054 31.2988,4.90387 6.3776,-1.44794 12.3393,-4.72247 18.4931,-7.16296 1.4226,-0.56421 2.7229,-1.14167 2.4292,1.47686 -0.9966,8.88422 -5.6712,15.30982 -13.5309,20.51911"
     id="path11"
     style="fill:#ffffff" /><path
     d="m 864.54648,200.18208 c 0,-13.15882 0.2754,-26.32502 -0.08,-39.47425 -0.3348,-12.39907 -5.1342,-19.56833 -19.8976,-16.21926 -6.9991,1.58773 -14.3668,2.73406 -21.73071,0.0743 -16.2431,-5.86682 -31.85394,-3.42214 -46.41095,5.20588 -10.9378,6.48294 -18.0534,16.02255 -22.16784,28.38101 -2.87659,8.64032 -3.52759,17.30987 -2.38758,25.7948 0.96112,7.15375 3.52271,14.76965 7.55878,20.69378 8.72907,12.81244 20.57507,21.78358 36.68774,24.23768 11.42542,1.74011 22.18201,1.25775 32.06196,-5.34943 1.1229,-0.75086 2.1285,-1.67706 3.1885,-2.52191 0.059,1.64105 0.224,3.28833 0.1283,4.92029 -0.042,0.71179 -0.7166,1.36242 -0.9363,2.09137 -3.91395,12.98895 -19.96949,23.06207 -34.00349,14.70568 -4.37158,-2.60296 -9.05823,-4.6712 -13.54114,-7.09436 -5.30853,-2.86944 -11.15625,-3.00824 -16.41547,-1.26068 -9.9494,3.30603 -9.02069,14.48151 -2.45495,21.29401 9.70398,10.0686 22.24499,14.63446 35.81085,15.88611 10.91913,1.00757 21.82349,0.017 32.3174,-3.83905 14.8641,-5.46173 26.3511,-14.33905 29.3287,-30.75031 1.7173,-9.46435 2.3484,-19.1698 2.8447,-28.79883 0.4624,-8.97015 0.099,-17.98284 0.099,-27.9768"
     id="path10"
     style="fill:#ffffff" /><path
     d="m 313.54648,97.182083 c -6.71771,-12.71774 -13.30304,-25.50809 -20.22043,-38.11631 -2.6495,-4.82922 -8.12268,-4.85723 -10.72738,-0.1253 -11.12262,20.20642 -22.10578,40.49036 -33.03183,60.804057 -6.44455,11.98169 -12.59714,24.12039 -19.0391,36.10351 -13.41198,24.94843 -26.92532,49.84241 -40.40439,74.75476 -6.85067,12.66156 -13.66613,25.34271 -20.59747,37.96002 -3.729,6.78797 -3.2814,7.91242 4.54752,8.08118 20.69024,0.44592 41.38421,0.87457 62.07751,0.91889 5.1839,0.0111 10.12262,-1.70569 13.01163,-6.94501 5.69226,-10.32288 11.68143,-20.48224 17.35721,-30.8139 6.77981,-12.34125 13.35446,-24.79511 20.04159,-37.1875 0.37384,-0.69275 0.9625,-1.26966 1.45117,-1.90046 0.51133,0.76545 1.08316,1.49781 1.52393,2.30188 2.45529,4.47949 4.87671,8.97754 7.31363,13.4671 9.23132,17.00721 18.44269,34.02527 27.70944,51.01313 2.79892,5.13098 5.87543,10.14386 12.70126,10.16198 22.16376,0.0588 44.32789,0.003 66.49176,0.04 3.88587,0.006 5.1565,-2.24572 3.87006,-5.30413 -2.74658,-6.53003 -5.80225,-12.95582 -9.13794,-19.20734 -8.52734,-15.98145 -17.28698,-31.83881 -25.93573,-47.75562 -10.79089,-19.85927 -21.5617,-39.72945 -32.34534,-59.5927 -8.71585,-16.05447 -17.4378,-32.10562 -26.6571,-48.658237"
     id="path9"
     style="fill:#fc4c02;fill-opacity:1" /><path
     class="selected"
     fill="#000000"
     opacity="1"
     stroke="none"
     d="m 804.79648,169.93208 c 9.87824,-0.73584 18.36774,1.56323 23.7374,10.29693 6.93,11.27161 5.0046,30.26105 -6.34079,37.49225 -14.95246,9.53015 -35.02924,-0.094 -38.83857,-15.66876 -3.61157,-14.76605 6.32471,-29.61212 21.44196,-32.12042 z"
     id="path3"
     style="fill:#321900;fill-opacity:1" /><path
     class="selected"
     fill="#000000"
     opacity="1"
     stroke="none"
     d="m 1103.2965,186.43208 c 4.1888,-15.91291 26.1281,-22.70404 39.5208,-10.78131 7.3479,6.54132 10.172,15.64819 8.5762,25.27606 -1.7094,10.31402 -8.5799,16.99695 -18.5341,19.65606 -14.3897,3.84388 -28.5816,-6.11132 -30.2157,-20.9552 -0.4678,-4.24896 0.2362,-8.62683 0.6528,-13.19561 z"
     id="path4"
     style="fill:#321900;fill-opacity:1" /><path
     class="selected"
     fill="#000000"
     opacity="1"
     stroke="none"
     d="m 672.54648,171.68208 c 15.00232,-6.55744 33.59912,3.06714 35.12561,20.97491 1.3523,15.86396 -9.05554,28.22083 -24.79962,29.78534 -8.66827,0.86139 -15.40894,-4.72558 -20.26489,-11.64239 -8.44733,-12.03223 -6.34314,-21.48304 1.88031,-32.41266 1.98449,-2.63758 5.0111,-4.49115 8.05859,-6.7052 z"
     id="path5"
     style="fill:#321900;fill-opacity:1" /><path
     class="selected"
     fill="#000000"
     opacity="1"
     stroke="none"
     d="m 559.29648,166.93208 c 2.95844,7.62506 5.52911,15.05468 8.42041,22.35736 2.16394,5.46551 2.34503,5.27691 -3.30737,5.41858 -9.52747,0.23871 -19.05554,0.54779 -28.57343,1.02466 -3.31964,0.16632 -4.07226,-1.06055 -2.92682,-3.90375 5.63745,-13.99213 11.29566,-27.97602 16.95954,-41.95752 0.28882,-0.7128 0.69836,-1.37671 1.05169,-2.06339 0.47113,0.72052 1.07209,1.38788 1.39264,2.17011 2.27655,5.55484 4.49585,11.13315 6.98334,16.95395 z"
     id="path6"
     style="fill:#321900;fill-opacity:1" /><path
     class="selected"
     fill="#000000"
     opacity="1"
     stroke="none"
     d="m 1031.7965,184.43208 c -0.6107,0.58331 -1.4697,1.20196 -2.3323,1.20685 -11.4889,0.0646 -22.9784,0.0431 -34.46762,0.0431 -1.1656,0 -2.3417,-0.0997 -3.4945,0.0214 -2.1885,0.2298 -4.3638,0.586 -6.5446,0.88965 0.785,-2.05902 1.6267,-4.09851 2.3446,-6.18067 2.3971,-6.95269 8.5131,-9.49707 14.58852,-11.38165 6.0617,-1.88031 12.3842,-1.0907 18.485,0.94727 4.4491,1.48614 6.1295,5.34832 8.1721,8.95208 0.9939,1.75385 1.9988,3.50153 3.2488,5.50196 z"
     id="path7" /><path
     class="selected"
     fill="#000000"
     opacity="1"
     stroke="none"
     d="m 1325.7965,180.43208 c 5.8835,9.40826 6.5297,19.17224 2.6689,28.94592 -6.2299,15.77148 -24.4083,19.82068 -38.0249,9.69873 -13.5531,-10.07477 -12.7941,-29.59192 -2.8532,-40.34467 8.8315,-9.55273 23.8385,-13.06414 34.4356,-2.07934 1.154,1.19623 2.3481,2.35388 3.7736,3.77936 z"
     id="path8"
     style="fill:#321900;fill-opacity:1" /><metadata
     id="metadata19"><rdf:RDF><cc:Work
         rdf:about=""><dc:title>Aggregio Logo</dc:title><dc:date>07-22-25</dc:date><dc:creator><cc:Agent><dc:title>Milo Powell</dc:title></cc:Agent></dc:creator><dc:rights><cc:Agent><dc:title>Milo Powell</dc:title></cc:Agent></dc:rights><dc:description>Logo for my new app, Aggregio</dc:description></cc:Work></rdf:RDF></metadata></svg>
