<svg xmlns="http://www.w3.org/2000/svg" width="512" height="512" fill="none" xmlns:v="https://vecta.io/nano"><g clip-path="url(#A)"><g stroke="#000" stroke-linejoin="round"><path d="M222.673 511.97c-60.231 0-120.297.141-180.363-.188-7.065-.038-14.137-1.845-20.968-7.886-8.078-7.145-14.066-19.775-17.68-39.294-1.724-9.311-2.891-19.149-3.312-29.421l-.968-28.942-.358-57.944-.009-39.138.037-199.165c.016-13.178.763-26.22 1.875-39.19.852-9.942 1.98-19.555 3.737-28.604 2.708-13.954 6.678-25.193 12.228-32.356 3.126-4.035 6.473-6.38 9.984-7.632C35.414-.835 43.986.773 52.538.72L161.713.609l256.698-.851c1.827-.007 3.654-.782 5.479-.758l47.926.925c6.039.254 12.107 2.008 17.882 6.676 6.565 5.307 12.272 14.31 16.065 29.419 2.147 8.558 3.533 17.945 4.355 27.931.971 11.8 1.314 23.662 1.322 35.691l.289 64.609.026 85.081.308 87.508-.055 69.255c-.201 17.523-1.182 34.955-3.589 51.568-2.788 19.241-7.701 34.188-15.027 43.303-3.252 4.047-6.816 6.284-10.455 7.785-5.298 2.187-10.61 2.389-15.948 2.406l-244.316.812z" fill="#321900" stroke-width=".543"/><path d="M279.806 185.44l-18.91-38.733c-2.478-4.907-7.596-4.935-10.032-.127l-30.891 61.787-17.805 36.687-37.785 75.963-19.263 38.573c-3.487 6.898-3.069 8.041 4.253 8.212l58.054.934c4.848.011 9.466-1.733 12.168-7.057l16.232-31.312 18.743-37.789c.35-.704.9-1.29 1.357-1.931.478.778 1.013 1.522 1.425 2.339l6.84 13.685 25.913 51.838c2.618 5.213 5.495 10.307 11.878 10.326l62.182.04c3.634.007 4.823-2.282 3.62-5.389a245.09 245.09 0 0 0-8.546-19.518l-24.255-48.528-30.249-60.556-24.929-49.444z" fill="#fc4c02"/></g><g stroke="#321900" stroke-width="2" stroke-linecap="round"><path d="M509.083 55.975a1.23 1.23 0 0 0 .025.216l.043.203.056.163a1.04 1.04 0 0 1 .052.338c0 .015-.013-.048-.053-.196l-.147-.658-.057-.217c-.021-.065-.036-.129-.065-.187s-.034-.131-.057-.214l-.054-.178c-.02-.061-.022-.135-.04-.203l-.055-.19-.054-.165c-.022-.069-.027-.16-.038-.241-.009-.068-.025-.131-.032-.234-.004-.07-.025-.149-.036-.226-.01-.067-.025-.122-.04-.181-.011-.039-.007-.077-.014-.077-.013 0-.002.053.107.465l.444 1.612.153.585c.056.213.056.361.068.476l.04.293c.006.072.034.142.052.219l.063.264c.044.171.09.237.113.296l.066.178a1.29 1.29 0 0 1 .045.212c.006.063.025.133.038.192s.023.135.038.228c.024.136.016.264.028.357a.8.8 0 0 0 .042.174c.018.054.028.126.041.194a1.64 1.64 0 0 1 .029.266 1.25 1.25 0 0 0 .039.217l.04.19c.009.027.018.059.025.227l.005.583c.003.193.034.246.052.305.009.04.013.081.018.115.004.016.013.029.022.07m-.013 1.041v.159l.002.563a1.79 1.79 0 0 0 .052.44l.054.253.043.237c.006.074.043.144.065.205l.068.201c.021.067.036.14.065.252l.084.289.151.382c.045.11.061.192.079.255.004.014.009.027.014.025.112-.05-.072-.34-.124-.567l-.131-.529-.084-.341c-.021-.08-.022-.144-.038-.27-.032-.251-.016-.424-.027-.556l-.018-.192c-.002-.021-.007-.034-.025-.048m.365 5.646l.005.65c.003.227.045.307.063.379l.056.19.077.201c.023.055.039.111.057.165l.051.135c.008.013.012.027.014-.013l.014-.378c.017-.348-.003-.597-.012-.626-.021-.069-.027-.151-.04-.228l-.052-.259c-.021-.1-.025-.192-.032-.28-.006-.076-.033-.156-.061-.28a1.92 1.92 0 0 1-.033-.3l-.03-.327c-.003-.067.176-.011.277-.027.047-.007.123-.002.158-.011s.026-.027.017-.043l-.149-.259c-.034-.053-.05-.117-.059-.207-.012-.12-.045-.217-.063-.28-.016-.055-.045-.108-.095-.135l-.16-.097-.032-.036c-.011-.011-.024-.02-.038-.03"/><path d="M510.76 69.794l.056 2.401c.022.208.12.394.185.539.073.167.08-.433.104-.666l.097-.812c.043-.398.072 1.139.128 1.42.049.246.056.665.096 1.736l.017 3.222c.009.98-.072 1.172-.097 1.645-.014.269.072.523.129.78.027.126.024.242.048.592l.048 1.832.048 1.784.097 1.672.096.731c.022.118.024.233.048 1.109v3.286l-.128 1.245c-.008.056-.008.12-.105.282m-.144.144l.088 1.814c.082.395.056.627.096.876.063.39.057 1.35.097 1.984l.096 1.75c.059.997-.152 1.223-.32 1.432-.149.184-.234.385-.33.618-.157.379.064.698.088 1.172.016.317.072.571.136.764s.129.386.185.897c.04.364.008 1.05 0 1.427l-.032 1.076-.016 2.589-.08 2.05v3.96l.096 1.866c.008.065.024.113.032.384l.008 1.272m-.192.868v.756l.008 2.772.096 1.933c.005.081.024.129.032 1.139v4.031c-.01 1.353-.135 1.771-.193 2.356-.019.202-.04 1.031-.032 2.211l.032 1.325v3.438l-.096 2.304c-.016.325-.072.612-.096.869-.071.748-.072 2.008-.097 2.377-.033.503-.2 1.234-.313 1.76l-.233 1.166c-.041.163.184-.337.353-.53s.281-.433.434-.706c.037-.067.072-.113.104-.114.348-.007.129.915.153 2.348l.032.431c.008.08.008.191.008.306m.097 1.109v1.24l.008 4.872.08 2.024.016 1.735c.011.107.04.854.032 1.954l-.048 1.033-.144 2.403c-.034.243-.072.562-.097 2.268-.008.609-.072 1.026-.096 1.339l-.105 1.052c-.039.504-.144.883-.184 1.19-.037.276-.121.593-.177.867-.094.455.12 1.061.192 1.141s.169.113.225.209c.053.09.057.559.065 1.209l.048 1.742c.005.601.072.888.096 1.386l.097 1.173.128 1.011.008.806m-.385 1.012v1.687l-.008 6.402-.032 2.308v1.86l.096 1.662.08 1.854c.002.196-.023.26-.032 1.652l-.024 5.57c-.017 1.569-.096 1.778-.128 1.954-.032.145-.065.258-.089 1.468l-.008 5.78m.151-.503v1.343l.012 5.006c.013 1.51.104 1.832.139 2.376.008.129.034.221.046 1.152l.001 3.642c-.019 1.545-.15 2.613-.186 2.903-.056.452.104.962.139 1.414l.139 1.159c.058.43.081.685.116 2.097l.012 6.655m-.333.913v1.229l-.017 4.669-.213 4.484c-.029.966-.159 1.743-.213 2.54l-.284 2.958c-.173 2.303.159 2.734.213 3.337.013.143.052.248.088.249.348.016.284-.812.337-1.362.045-.459.195-1.079.301-1.614l.107-.586c0-.479-.106 1.182-.212 1.841l-.337 2.322c-.018.179-.053.319-.071.918s-.018 1.652.195 2.737m.181.826v.968l-.01 3.824-.037 1.271-.005 1.031.019.925v2.119l-.057 1.133c-.014.061-.023.145-.033.244-.009.042-.027.07-.047.127m-.065 18.602l.066-1.363c.071-.563.01-1.477-.056-1.724-.085-.312-.067-.624-.114-1.265-.091-1.235-.01-1.975 0-1.805.013.251.085.511.113.918l.171 1.79c.025.344.085.607.113.844.036.295.085.558.114 1.22l.057 1.182.038 2.278c-.005.597-.085.822-.152 1.144-.054.261-.066.68-.113 1.088l-.114 1.336-.113.9c-.054.271-.067.577-.123.956-.068.453-.095.91-.105 2.703-.004.633.16 1.422.227 1.957l.114.748.114.777c.013.125.047 1.062.028 2.435l.066 2.032c.08 1.076-.028 1.907-.085 2.124-.05.193-.038.351-.066.858l-.066 2.334c-.019.057-.038.114-.048 1.305l-.019 4.752-.113 2.069c-.111.878-.01 2.481.018 2.831l.095 1.295a19.02 19.02 0 0 1-.047 1.841m.057-55.346v2.016l.009 7.794.047 2.237m-1.818 160.981c0 .226-.037.681-.066.909-.015.116-.047.434-.057.859l-.057 2.674c-.004.732-.141.956-.208 1.23l-.237.805-.236.692c-.125.346-.35.672-.502.9s-.303.454-.502.634c-.099.09-.18.199-.275.209-.355.038-.113-.728-.142-1.191l-.038-2.729c.004-.671.178-1.293.396-2.098l.56-2.058c.113-.467.265-.721.35-1.005.024-.078.066-.151.104-.218s.076-.123.095.092l.124 2.451c.102 1.477-.123 1.707-.227 1.935-.112.244-.256.454-.379.691-.133.256-.198.502-.246.824-.038.248-.085.473-.114.946-.021.345-.085.607-.152.835a4.37 4.37 0 0 0-.132.682c-.03.235-.142.454-.18.681-.042.251-.189.455-.265.682-.08.24-.095.511-.161.655-.14.301-.067-1.308-.02-2.016.045-.665.312-1.61.606-2.744.173-.672.388-1.272.625-1.914l.625-1.886.303-.985.228-.825c.07-.238.104-.548.18-.843l.161-.691c.064-.22.104-.454.133-.786l.113-1.221.114-2.055.114-.976.113-.881.114-1.259c.011-.154.047-.285.057-.371.095-.868.01 2.546-.019 2.774-.031.249-.085.511-.161.739s-.151.454-.18.682c-.03.235-.142.454-.17.785-.026.301-.142.521-.171.778-.058.515-.01-1.428.056-1.91.096-.693.35-1.486.521-2.073l.285-1.102c.074-.241.094-.511.123-.786l.113-.89c.012-.144.048-1.081.039-2.445-.004-.482-.029-.538-.066-.567s-.094-.029-.123.008c-.154.199-.124.473-.152.701-.032.253-.142.586-.218.909-.067.287-.189.511-.294.748-.128.292-.198.559-.274.786-.038.114-.095.228-.161.341-.029.057-.048.114-.067.285m2.046-25.798v1.07l-.01 3.977-.094 2.709-.019 3.77-.057 2.108c-.004.231-.028.287-.038 1.31l-.028 4.072-.123 2.562c-.011.3-.085.355-.179.384s-.226.029-.322.001-.152-.085-.19-.142c-.134-.199-.114-.454-.143-.682-.047-.733-.01-2.063.009-2.592v-1.272"/><path d="M511.471 398.263l.047 2.628c.003.327-.047.552-.057.836l-.038 2.719c.005.825.085 1.203-.018 1.524-.216.671.103.966.132 1.921.006.202.028.258.038.831v2.258l-.095 2.346c-.004.432.085.733.114 1.338.009.134.028.19.037.547l.01 1.69m.114-61.256v1.229l-.01 4.638-.056 2.378-.076 1.263-.17 3.921c-.051 1.098-.105 1.231-.143 1.354-.02.066-.037.141-.103 1.577l-.227 5.697.036 2.342.001 2.579-.095 1.582-.066 1.216m.795-1.364l-.104 2.224c-.069.345-.066.691-.123 1.061l-.123 1.013c-.023.307-.085.568-.114.824-.056.5-.085 1.184-.095 2.827-.003.521.142.744.209.971a4.06 4.06 0 0 1 .132.729c.048.294.066.579.095 1.189l.01 2.686m.227-61.824v.872l-.01 3.184-.113 2.429c-.018.28-.085.54-.114.853l-.114 1.381c-.006.163-.028.238-.037.999l-.001 2.976.057 1.829.095 2.015.009 3.35M448.878 510.7c-.315 0-.953.021-1.076.082-.112.056-.246.062-.425.108l-.467.128c-.141.022-.276.072-.404.113-.193.061-.426.051-1.034.066l-1.081.062-.911.031-.678.03-1.176.021c-.312-.003-.454-.046-.588-.062-.147-.017-.327-.076-.487-.092-.128-.036-.22-.077-.282-.102-.03-.006-.061.005-.154.076m-.399.246h-.924l-3.547.006-1.671.02h-2.832l-1.375-.031-1.13-.051-1.713-.01-.891-.021c-.391-.005-1.121-.005-1.523 0l-.732.021a19.09 19.09 0 0 1-1.341-.026m-.061.277h-.751c-.731 0-2.182 0-2.949-.005l-1.391-.031-.682-.031c-.119-.002-.2-.015-1.105-.076l-3.659-.25-1.553-.14-1.005-.046-1.358-.031-1.397-.03-1.707-.011-1.318-.031c-.372-.004-.617-.045-.842-.061-.052-.004-.082-.015-.032 0 .464.139.921.159 1.183.184l.784.067.671.067.718.082c.167.033.333.035.761.061.304.018.873.005 1.181 0l1.019-.061c.067-.005.108-.016.149-.021s.082-.005.124-.036m-5.833.367c0 .014 0 .029-.457.037h-1.87l-2.15-.089-1.278-.09c-.151-.005-.21-.022-.756-.029l-2.145-.015c-.806-.011-1.073-.067-1.333-.089l-1.063-.09-1.933-.089c-.166-.005-.24-.022-.756-.03s-1.474-.007-1.997 0l-.998.045-1.906.03c-.536-.004-.772-.067-1.181-.09-.098-.007-.156-.022-.224-.029a1.81 1.81 0 0 0-.172-.008m.045.491h-1.348c-1.318 0-3.94 0-5.327-.007l-1.945-.045-1.992-.089-1.662-.075a77.4 77.4 0 0 0-2.457 0l-2.081.03-6.888.008m-1.026.089h-1.437c-1.406 0-4.205 0-5.705-.008l-2.154-.052-1.823-.17-3.672-.386-1.918-.106-1.972-.074-1.685-.015-1.652-.089-1.961-.06c-.169.001-.124.066-.086.111.14.168.245.357.409.484.147.114.357.082.721.104l2.021.09 1.193.089 1.301.089c.076.005.12.022.776.03h2.597l.889-.03.768-.007m-10.444.178c0 .015 0 .03-.464.037l-1.899.001-2.109-.045-.923-.03-2.018-.015-1.728-.089c-.366-.02-.868-.096-1.264-.134l-1.485-.074-1.618-.015-1.261-.074-1.866-.149-3.056-.03c-.929.009-1.107.067-1.359.089l-.856.119c-.243.044-.483.052-.699.089-.287.05-.528.053-.781.09-.237.034-.476.052-.566.052-.431 0 .903-.045 1.315-.082l1.064-.089c.339-.056.551-.052.818-.089s1.271-.053 1.89-.016l.526.045 1.067.008m-7.588.446h-1.061l-4.162.007-1.648.052-2.162.112h-4.579c-1.429-.009-1.696-.082-1.934-.119l-.751-.089-1.51-.186-.67-.141-.921-.075-.508-.007m-.178.357c-1.738 0-3.476 0-4.394-.008l-1.109-.044c-.148-.022-.399-.052-1.264-.082l-3.171-.089-1.077-.082-.188-.052m.312.401h-.781c-.722 0-2.136 0-2.93-.014-1.125-.021-1.596-.163-2.067-.231l-1.331-.164-1.458-.089-1.914-.045-1.038-.074-1.29-.052m.848.58l-2.089.052c-.068.006-.127.022-1.151.03h-4.074l-1.401-.03-1.776-.044-1.7-.015-1.622-.09-.915-.089-1.505-.044-1.985-.045-1.226-.03-3.317-.015-1.117-.081c-.044-.015-.089-.03-.09-.045m-.178.178h-1.002l-3.925.008-1.422.029c-.958.022-1.64-.007-1.758-.029-.338-.064-.728-.052-1.255-.089l-1.696-.045-1.484-.052m-.58-.045h-.943c-.913 0-2.725 0-3.68-.007l-1.676-.09-1.733-.089-.983-.089-1.011-.089-1.706-.03c-.454.004-.63.066-.809.089-.045.006-.089.022-.119.052s-.045.074-.016.096c.179.139.401.097.58.157.089.03.179.059 1.188.082l3.8.015c.949.007.905.022-.023.029l-3.696.015-1.956.045-2.131.03c-.545-.004-.751-.111-.93-.164-.173-.05-.681-.052-1.041-.089l-.699-.097c-.239-.044-.446-.074-1.033-.082-.267-.003-.44.082-.633.119-.25.048-.402.052-.403.052l1.008.082 1.774.008m-2.365.312h-1.194c-1.163 0-3.476 0-4.719-.007l-2.207-.045c-.495-.008-.85-.067-1.2-.089l-2.014-.089c-.181-.005-.225-.022-.867-.03s-1.878-.008-2.538 0c-.853.009-1.15.066-1.343.089-.254.03-.431.067-1.425.075l-.404-.03-.656-.008m-.313.313h-.641c-.582 0-1.716 0-2.323-.008-.831-.01-1.215-.126-1.824-.237-.193-.036-.579-.082-1.372-.171-1.067-.12-1.783-.016-1.961.006-.415.052-1.452.097-2.017.134l-.93.097-.87.126c-.32.023-.558.082-1.996.09-.303-.007-.347-.022-.482-.037m-.669 0h-.575c-.545 0-1.62 0-2.204-.008l-2.081-.074-1.893-.015c-.658-.01-.834-.082-1.285-.119l-1.713-.045c-.111-.007-.288-.007-.47-.052m-.491.447h-.7c-.67 0-1.996 0-2.708-.008-.877-.009-1.172-.096-1.419-.134l-.899-.163c-.771-.084-1.366-.052-2.081-.09l-1.869-.081-.98-.097-1.663-.008m-2.633.268h2.767m-2.698.17h-1.082c-.993 0-2.933 0-3.936-.014s-1.013-.04-1.022-.067m-.715-.076h-1.331c-1.281 0-3.819 0-5.157-.007l-1.738-.062-.943-.075-1.296-.081a7.6 7.6 0 0 0-.7-.082c-.205-.015-.424-.069-.898-.1-.927-.061-1.591.006-1.666.031-.216.072-.487.05-1.144.069h-2.458l-.767-.025-.358-.006m-.75.262c-.099 0-.299-.024-.699-.043-.301-.015-.651-.056-.838-.106s-.338-.1-.806-.119c-.107-.005-.157-.019-.671-.025a97.25 97.25 0 0 0-2.021 0l-1.397.075c-.246.016-.494.056-.744.106-.335.067-.638.075-.832.106-.129.021-.244.019-.746.038l-1.84.012-.728.038c-.044.003-.081.018-1.332.025h-5.002l-1.48-.025-1.332-.075-.456-.038-.608-.006m-.779.334h-.47c-.434 0-1.285 0-1.741-.004l-.783-.027c-.063-.001-.089-.013-.875-.013l-3.138.009c-.889 0-1.012-.035-1.154-.049l-1.017-.053c-.207-.005-.312-.04-.493-.058-.066-.008-.154-.026-.866-.035l-3.393-.036m1.115.399h-1.036c-1 0-2.983 0-4.018-.004l-1.088-.018c-.027-.004-.053-.004-.615-.101l-2.627-.42-2.209-.227-.653-.049-.862-.032m.666.904a26.36 26.36 0 0 1-1.218-.031c-.167-.012-.27-.048-.381-.07-.179-.036-.429-.058-.602-.08l-.532-.053c-.232-.04-.412-.032-.563-.054-.132-.019-.327-.031-.641-.053l-.989-.026-.98-.058-.447-.049-.347-.004m.08.106c-.017 0-.527 0-1.297-.004-.353-.002-.457-.093-.59-.133l-.385-.133c-.196-.047-.367-.12-.501-.133l-.31-.075c-.027-.009-.053-.018-.107-.054M2.978 456.341c-.018-.114-.088-.327-.155-.606-.095-.4-.049-1.086-.111-1.241-.08-.2-.141-.595-.195-.855l-.115-.452c-.039-.11-.053-.257-.106-.478a4.76 4.76 0 0 1-.093-.687l-.058-.664-.071-.708-.142-1.034-.102-.97-.058-.617-.102-.611-.053-.377c-.012-.115-.066-.217-.102-.324a.46.46 0 0 1-.022-.149l-.031-.489m.027-.824a1.21 1.21 0 0 0-.08-.372c-.045-.107-.071-.213-.102-.319-.015-.051-.013-.106-.031-.133-.084-.127-.044.398-.075.518-.044.168-.031.279-.053.385s-.04.186-.053.187c-.222.006-.031-.416-.053-.642-.029-.301-.013-.554-.027-.752l-.053-1.083-.053-.425-.053-.443-.053-.355c-.032-.162-.058-.464-.08-.73l-.027-.563c-.017-.189-.013-.342-.027-1.058v-2.661l.027-1.159.049-1.243.027-1.15c.01-.346.053-.637.093-1.044l.089-.937.053-.67.102-.806.058-.619c.005-.176.005-.501-.049-.888m-.32 2.074l-.004-1.175c-.003-.525-.04-1.023-.071-1.16l-.053-.762c-.005-.049-.005-.11-.005-.174m-.08-.824v-.504l-.004-1.967-.027-1.266-.027-.568c-.002-.081-.013-.108-.018-.77v-2.652l.031-1.168.053-.723.049-.683.031-.743c.011-.478.079-.899.106-1.317l.066-.829.005-.422M.558 85.808c-.018 0-.027-.43-.031-1.094l-.053-1.248-.053-.948c-.003-.103-.013-.147-.018-.486v-1.309l.053-1.056c.003-.027.013-.053.022-.053.087-.004.053.221.075.618.031.562-.013 1.012-.04 1.162l-.12.617c-.024.13-.066.235-.12.43-.043.156-.062.355-.128.677-.039.189-.04.298-.062.479-.011.092-.013.182-.027.582v1.388c.006.508.04.684.053.809l.053.514.044.337c.025.118.022-.708.035-.912.014-.216.181-.829.244-1.245l.075-.643.053-.509.084-.691.049-.364c.002-.04.013-.075.018-1.054l.009-3.908.018-1.135.027-.519c.008-.053.005-.123.132-.936l.513-3.179.219-1.167c.042-.148.045-.319.032-.492-.005-.06-.039-.059-.062-.041-.108.085-.129.221-.164.328s-.097.213-.137.319a4.2 4.2 0 0 0-.129.421l-.106.372-.106.35c-.033.107-.071.213-.084.407-.009.126-.04.231-.053.492l-.027.924c-.005.559-.04 1.138-.066 1.058-.012-.035-.009-.062-.07-.475l-.248-1.873c-.063-.661-.063-1.161-.05-1.48.025-.618.155-.877.204-1.051.055-.197.164-.438.208-.576.041-.127.088-.305.115-.439l.097-.39.102-.35c.035-.125.049-.252.106-.39l.111-.244.027-.08m1.516-12.388a1.94 1.94 0 0 1-.057.425l-.16.399-.208.598c-.088.22-.107.386-.195.695l-.142.608c-.03.117-.053.261-.067.408-.01.113-.04.235-.058.593-.014.275-.062.43-.075.634l-.053.598-.053.572c-.006.072-.022.151-.062.441l-.204 1.243c-.012.169-.057.38-.08.545l-.053.328-.053.394-.062.425c-.003.022-.039.009-.057.022-.262.19-.053.872-.084.988-.028.104-.049.213-.066.319-.019.114-.062.213-.075.496a1.39 1.39 0 0 1-.075.382c-.035.107-.053.213-.08.319l-.08.319-.084.288c-.019.046-.049-.365.03-1.233.053-.582.237-1.439.375-2.106l.324-1.375.2-.646.331-.986.526-1.415.366-.849c.056-.112.119-.397.155-.946a5.43 5.43 0 0 1 .15-.972l.182-.763.053-.47.053-.501c.013-.071.022-.282.031-.575.009-.108.026-.134.044-.162M65.642 1.024h.298l1.14-.004c.423-.006.528-.04.679-.053l.832-.053.235-.018c.093-.005.233-.005-.313.035l-2.438.164-1.291.067-.901.049c-.042.001.046 0 .113-.004s.111-.013 1.823-.075l6.847-.239 1.828-.076.501-.053c.136-.017.262-.013.583-.027h1.061c.373.006.549.04.745.053.161.011.302.04.434.062.254.042.372.084.523.115l1.176.035c.189.004.216.013.269.022M95.79.785h-.505l-1.887.004c-.612.005-.736.04-.851.053-.108.013-.283.057-.655.08l-.991.044H89.76L88.735.94c-.238-.003-.379-.04-.587-.053L87.745.86c-.072-.004-.107-.013-1.13-.018l-5.101-.03M79.44.546h1.542m14.995.239l.676-.004 2.889-.048 1.721-.128c.375-.04.536-.04 1.287-.054h2.622l1.168.027.499.018 1.3.009.4.018a1.45 1.45 0 0 0 .147.005"/><path d="M109.615.758l1.606.009 6.869.062 3.907.12 1.177.071a2.93 2.93 0 0 0 .213.005m17.122.053h-.773c-.737 0-2.193 0-2.966-.004l-1.028-.027c-.045-.002-.072-.013-.958-.018h-3.545l-1.293.053c-.135.009-.275.04-1.075.053l-.568.027-1.318.018c-.328-.002-.434-.04-.549-.053l-.439-.053c-.114-.012-.217-.084-.323-.128l-.08-.031c-.185-.092.823-.066.952-.098l.806-.195c.201-.045.359-.066.479-.08l.638-.097c.135-.027.367-.031.554-.053l.438-.066c.212-.026.368-.062.717-.075.077-.003.112-.013.595-.018h1.91l1.072.053c.162.013.266.049.395.071l.443.053.549.062c.049.003.075.013.431.018l1.445-.004c.664-.014.928-.079 1.106-.12s.337-.049.536-.062l.532-.053a22.38 22.38 0 0 1 1.197-.018c.333.002.438.049.545.075s.23.071.345.084c.053.013.107.031.19.044.058.005.146.005.236.005M125.7.918h-.342c-.308 0-.904 0-1.238-.004l-.839-.044c-.053-.005-.132-.005-.24-.031m299.788.185h-.593c-.54 0-1.593 0-2.148-.004-.636-.005-.742-.066-.839-.133-.024-.016-.027-.049-.019-.066.05-.104.248-.08.377-.093l.172-.027 1.242-.027a5.32 5.32 0 0 0 .735-.044c.104-.02-.138-.005-.683-.013l-.831-.053-.547-.035c-.695-.022-1.147 0-1.287.013l-.79.053c-.132.022-.344.031-.97.053h-1.954l-1.095-.053c-.049-.004-.075-.013-.356-.018l-1.368-.031m.611.08h-1.11c-1.057 0-3.145 0-4.331-.013l-1.579-.066-.661-.098c-.133-.013-.343-.053-.746-.071l-1.328-.014-.727.035-1.157.124-.726.053-.285.027-1.122.018c-.433-.003-.787-.04-.903-.075a1.75 1.75 0 0 1-.181-.075c-.032-.013-.058-.022-.112-.058m.397.64l-2.756.01-1.891.101h-3.526l-1.461-.071c-.065-.005-.003-.06.058-.091.232-.116.925-.132 1.394-.182a6.98 6.98 0 0 0 .788-.131c.263-.06.545-.101 1.744-.112.318-.003.438.071 1.369.101h3.386c.835-.01.775-.03.505-.04l-2.117-.061c-.711-.027-2.051-.01-2.841.01-1.262.032-1.498.162-1.741.212l-.777.121c-.49.084-1.618.071-2.364.011-.318-.026-.617-.081-1.588-.111L382.48.8l-2.774-.121-1.929-.101h-4.414l-1.466.061c-.001.01.099.03.202.051m.545.242h-1.34l-5.239.01-1.76.04c-1.679.051-2.042-.05-2.396-.101l-.595-.061c-.478-.06-.87-.03-2.901-.061l-7.779-.02-2.401-.061-2.727-.101c-.111-.01-.271-.01-.436-.01"/><path d="M338.707.569h6.363m-6.424.424c0-.02 0-.04-.75-.05h-3.052l-2.396.121-2 .121c-.409.016-.77.091-1.274.121-.427.026-.869.091-2.943.101-.493.003-.614-.071-.675-.121-.163-.135.423-.152.817-.182.277-.022.515-.091.768-.162.284-.08.535-.111 3.001-.142.768-.01 1.049-.091 1.362-.162.347-.079.676-.071 1-.121.238-.037.445-.03.606-.061.1-.019.241-.01-.477-.01l-3.142.01-2.353.061-2.397.121c-.174.007-.254.03-1.085.04h-3.255l-2.298-.121c-.31-.029-.865-.111-2.303-.162l-4.342-.02-1.654-.04c-.441-.01-1.241-.01-2.065.05m-.166.502l-3.512.094c-.428.032-.956.202-1.75.242l-2.624.135c-.524.006-.945-.148-1.243-.242-.285-.089.777-.229 1.21-.31.586-.109 1.454-.135 1.979-.175l1.292-.135c.516-.074-.936-.014-3.682 0-1.338.006-1.929.121-2.588.162-.15.009-.23.04-2.004.054h-7.065l-2.967-.081c-.232-.013-.312-.04-2.873-.054L269.035.564m.797-.026h-.871l-3.554.069c-1.181.069-1.927.206-2.338.277l-.951.118c-.384.043-.713.03-.94.052l-.438.052-.489.052c-.137.016-.26.013-.578.026h-1.059c-.451-.007-.728-.039-.897-.061l-.719-.121c-.145-.01-.265-.039-.39-.052-.058-.006.38-.022 1.095-.026.347-.002.485-.039.632-.052a2.43 2.43 0 0 0 .403-.074c.142-.039.316-.069.472-.1.179-.035.321-.03.438-.052a4.68 4.68 0 0 1 .58-.061l.951-.043 1.142-.004m-5.345.049h-.824l-3.158.011c-1.167.016-1.53.102-1.94.182-.561.109-1.023.08-2.879.137l-6.204.023-3.825.045-10.764.012m.069-.137h-1.061l-4.09.011-2.785.137-2.051.137-1.869.137c-.336.023-.695.102-1.786.137-.232.007-.299.034-.977.045h-2.659c-.949-.015-1.356-.125-1.721-.193-.343-.064-.547-.091-.616-.137-.186-.123 1.966-.137 3.209-.194l2.922-.137 3.159-.023 1.096-.045a3.72 3.72 0 0 1 .891.057"/><path d="M209.75 1.134c0-.023 0-.045-.722-.057l-2.954-.023-2.61-.137c-.138-.008-.206-.034-.365-.045-.406-.03.488-.012 2.265 0l1.315.045 3.217-.045c.08-.012.171-.012.251-.023s.148-.034.149-.057m-68.003.205h1.839l7.26-.011 3.586-.045h6.057l2.501.137 1.853.114 1.919.012m-3.896-.549h.869l3.317.011c1.077.014 1.348.102 1.622.137s.682.147 1.037.205l.523.068a58.55 58.55 0 0 0 3.043.046c.98-.006 1.795-.147 2.3-.205l.945-.137 1.094-.137.934-.057c.862 0-1.786.045-2.115.113-.258.053-.469.046-1.474.08l-3.58.023-1.953.057c-2.002 0 2.593.068 3.14.125.796.082 2.246.08 3.337.137l1.898.068c1.828.079 3.105-.011 3.264-.056.383-.11.706-.137 1.003-.194l1.161-.216c.535-.126 1.276-.114 2.617-.137.155-.003-.564.113-1.041.159l-1.618.205c-.533.071-.843.159-3.046.171-.532.003-.669-.08-.771-.148-.035-.045-.035-.113.382-.148s1.252-.035 2.112-.035m20.913.002h-.869l-3.102.011-2.348.137-2.031.114h-4.113c-1.32-.014-1.683-.102-2.013-.193-.54-.149-1.311-.046-1.379-.023-.453.151 1.296-.091 1.638-.125.365-.08 1.09-.125 2.621-.182l5.24-.012"/></g></g><defs><clipPath id="A"><rect width="512" height="512" rx="75" fill="#fff"/></clipPath></defs></svg>