<svg xmlns="http://www.w3.org/2000/svg" version="1.1" xmlns:xlink="http://www.w3.org/1999/xlink" width="512" height="512"><svg xmlns="http://www.w3.org/2000/svg" width="512" height="512" fill="none"><g clip-path="url(#a)"><g stroke="#000" stroke-linejoin="round"><path fill="#321900" stroke-width=".5" d="M222.7 512c-60.3 0-120.3.1-180.4-.2-7 0-14.1-1.9-21-7.9-8-7.1-14-19.8-17.6-39.3-1.8-9.3-3-19.1-3.3-29.4l-1-29-.4-57.9V110c0-13.2.8-26.2 2-39.2.8-10 2-19.6 3.7-28.6 2.7-14 6.6-25.2 12.2-32.4 3.1-4 6.5-6.3 10-7.6 8.5-3 17-1.4 25.6-1.5h109.2l256.7-1c1.8 0 3.7-.7 5.5-.7l48 1c6 .2 12 2 17.8 6.6 6.6 5.3 12.3 14.3 16 29.4 2.2 8.6 3.6 18 4.4 28 1 11.8 1.3 23.6 1.3 35.6l.3 64.7v85l.4 87.5v69.3c-.3 17.5-1.3 35-3.7 51.6-2.8 19.2-7.7 34.2-15 43.3-3.3 4-6.8 6.2-10.5 7.8a40.7 40.7 0 0 1-16 2.4l-244.2.8z"></path><path fill="#fc4c02" d="M279.8 185.4 261 146.7c-2.5-4.9-7.6-5-10-.1l-31 61.8-17.7 36.7-37.8 76-19.3 38.5c-3.5 6.9-3 8 4.3 8.2l58 1c4.9 0 9.5-1.8 12.2-7.1l16.2-31.3 18.8-37.8c.3-.7.9-1.3 1.3-2l1.5 2.4 6.8 13.7 25.9 51.8c2.6 5.2 5.5 10.3 11.9 10.3h62.2c3.6 0 4.8-2.2 3.6-5.3a245 245 0 0 0-8.6-19.5L335 295.4 304.7 235l-24.9-49.5z"></path></g><g stroke="#321900" stroke-linecap="round" stroke-width="2"><path d="M509 56a1.2 1.2 0 0 0 .1.2v.2l.1.2a1 1 0 0 1 0 .3v-.2l-.1-.7-.1-.2v-.2l-.1-.2v-.2l-.1-.2V55l-.1-.2v-.5l-.1-.2v-.2s0 0 0 0c-.1 0 0 0 0 .4l.5 1.6.1.6v.5l.1.3v.2l.1.2c0 .2.1.3.2.3v.2a1.3 1.3 0 0 1 0 .2l.1.2c.1 0 0 .2 0 .2v.4a.8.8 0 0 0 .1.2v.2a1.6 1.6 0 0 1 0 .2 1.3 1.3 0 0 0 .1.3v1l.1.3s0 0 0 0v.1m0 1v.8a1.8 1.8 0 0 0 .1.4v.3l.1.2v.2l.2.2v.3l.1.3.2.4v.2s0 0 0 0c.2 0 0-.3 0-.5l-.2-.5v-.4l-.1-.3v-.7h-.1m.4 5.6V70l.2.2V70.6s0 0 0 0l.1-.4v-.8l-.1-.3v-.6a2 2 0 0 1-.1-.3V68h.4s0 0 0 0l-.2-.3V67l-.2-.1-.1-.1h0l-.1-.1"></path><path d="M510.8 69.8v2.4l.2.5.1-.6.1-.8.1 1.4.1 1.7v5.7l.1.6v1.8l.1 1.8.1 1.6.1.8V92.3l-.2.3m-.1.1v1.8c.2.4.1.7.2 1v2l.2 1.7c0 1-.2 1.2-.4 1.4l-.3.6c-.1.4 0 .7.1 1.2l.1.7c.1.1.2.4.2 1v5l-.1 2v6l.1.3v1.3m-.2.8V123.1l.1 1.9v5.1l-.1 2.4v7l-.1 2.3-.1.9-.1 2.3-.3 1.8-.3 1.2.4-.6.4-.7h.1c.4 0 .2.8.2 2.3v.7m.1 1.1v6.1l.1 2v4.8l-.1 2.4-.1 2.2-.1 1.4-.1 1-.2 1.2-.2.9.2 1.1.2.2v1.3l.1 1.7.1 1.4.1 1.2.2 1v.8m-.4 1V196.4l.1 1.9V205.5c0 1.5-.1 1.8-.2 2V214.6m0-.5v1.3l.1 5 .1 2.4v4.8a26 26 0 0 1-.1 2.9l.1 1.4.2 1.2v2l.1 6.7m-.3 1v5.8l-.3 4.5-.2 2.6-.3 3c-.1 2.2.2 2.6.3 3.3v.2c.4 0 .3-.8.4-1.4l.3-1.6v-.6l-.1 1.9-.4 2.3v1c0 .6 0 1.6.2 2.7m.1.8V278.9l-.1.1m0 18.6v-3.1c-.2-.3-.1-.6-.2-1.2v-1.8l.1.9.2 1.8.1.8.1 1.2v1.2l.1 2.3-.1 1.1-.1 1.1-.2 1.4v.9l-.2 1-.1 2.6.2 2 .1.7.2.8V318l-.1.9v2.3l-.1 1.3v4.8l-.2 2v2.9l.2 1.2a19 19 0 0 1 0 1.9m0-55.4V292m-1.8 161v.9l-.1.8v2.7c0 .7-.2 1-.3 1.2l-.2.8-.3.7c0 .4-.3.7-.5 1l-.5.6-.2.2c-.4 0-.1-.7-.2-1.2v-2.7c0-.7.2-1.3.4-2.1l.5-2 .4-1.1.1-.2c.1-.1 0-.1 0 0l.2 2.5c.1 1.5-.1 1.7-.2 2l-.4.7-.2.8-.1 1-.2.8a4.4 4.4 0 0 0-.1.6l-.2.7c0 .3-.2.5-.3.7l-.1.7c-.2.3-.1-1.4 0-2 0-.7.3-1.7.5-2.8l.7-2 .6-1.8.3-1 .2-.8.2-.9.2-.6.1-.8.1-1.3.1-2 .1-1 .2-.9V444l.1-.4a20.1 20.1 0 0 1-.2 3.5l-.1.7-.2.8-.2.8v-2l.6-2 .3-1.1.1-.8.1-.9a42.4 42.4 0 0 0-.1-3c-.2.2-.1.5-.2.7l-.2 1-.3.7-.3.7-.1.4v.3m2-25.8v5l-.1 2.7v3.8l-.1 2.1v5.3l-.2 2.6c0 .3-.1.4-.2.4h-.3l-.2-.1-.1-.7V434.7M511.5 398.3V406c-.3.6 0 1 0 1.9V414.7l.1.5v1.7m.2-61.3V361.5l-.1 2.4v1.3l-.3 3.9-.1 1.3-.1 1.6-.2 5.7v6.5l-.2 1.2m.8-1.3v2.2l-.2 1-.1 1-.1.9-.1 2.8.2 1a4 4 0 0 1 .1.7l.1 1.2v2.7m.3-61.8v4l-.2 2.4v.9l-.2 1.4v5.8l.1 2v3.3M449 510.7h-1.1l-.4.2-.5.1-.4.1-1 .1h-2.1l-.6.1H441l-.4-.1-.3-.1h-.2m-.4.3h-16.3a19 19 0 0 1-1.4 0m0 .2h-5.8l-1.1-.2-3.7-.2-1.5-.1h-1l-1.4-.1H403.1l-.8-.2s-.1 0 0 0c.4.2.8.2 1.1.2l.8.1h.7l.7.1.7.1H408.7l.1-.1m-5.8.4h-4.5l-1.3-.2H394.3l-1.3-.1-1-.1h-2l-.8-.1H383a1.8 1.8 0 0 0-.1 0m0 .4h-8.7l-1.9-.1-1.7-.1a77.4 77.4 0 0 0-2.4 0h-9m-1 .1h-9.3l-1.8-.2-3.7-.4-2-.1H337.8l-1.6-.2h-2c-.2 0-.1 0 0 0l.3.6h.7l2 .2h1.3l1.3.1h5m-10.5.2h-7.4l-1.7-.1-1.3-.2H320.7l-1.2-.1-1.9-.2h-4.4l-.9.2h-.7l-.7.2a5 5 0 0 1-.6 0h1.3l1-.1.9-.1h3.4m-7.5.4h-5.2l-1.7.1-2.1.1h-4.6l-2-.1h-.7l-1.5-.3-.7-.1h-1l-.4-.1m-.2.4h-5.5l-1.3-.2h-3.1l-1.1-.1-.2-.1m.3.4h-3.7c-1.1 0-1.6-.2-2-.2l-1.4-.2h-1.5l-1.9-.1-1-.1h-1.3m.9.5h-2.1l-1.2.1h-8.9l-1.7-.2h-.9l-1.5-.1H247l-3.3-.1h-1.1l-.1-.1m-.2.1h-11.1l-1.4-.1m-.6 0h-4.6l-1.7-.2h-1.7l-1-.2h-3.6s0 0 0 0v.2l.5.1 1.2.1h3.8c1 0 .9 0 0 0h-3.7l-2 .1h-2.1l-1-.1-1-.1-.7-.1h-2.1l1 .2h1.8m-2.4.3H201.8l-1.2-.2h-9.2m-.3.4h-3c-.8 0-1.2-.2-1.8-.3l-1.4-.2h-2l-2 .2h-.9l-.9.2-2 .1h-.4m-.7 0H173.2l-2-.1h-2l-1.3-.2h-2.1m-.5.4H161.9l-1.5-.1-.9-.2-2-.1h-1.9l-1-.2H153m-2.7.3h2.8m-2.7.2h-5l-1-.1m-.8-.1h-8.2l-1-.2h-1.2a7.6 7.6 0 0 0-.7-.1l-1-.1h-6.3m-.8.3h-.7l-.8-.1-.8-.2h-.7a97.3 97.3 0 0 0-2 0l-1.4.1-.7.1-.9.1H113.8l-.7.1H104l-.5-.1h-.6m-.8.3H94l-1-.1h-.6l-.8-.1h-3.4m1.1.3h-6.8l-2.6-.5-2.2-.2h-.6l-1-.1m.8.9a26.4 26.4 0 0 1-1.3 0l-.3-.1h-.6l-.6-.1h-.5l-.7-.1h-1l-1-.1h-.7m0 0H69l-.5-.1-.4-.1-.5-.2h-.3l-.1-.1M3 456.3l-.2-.6v-1.2c-.2-.2-.2-.6-.3-.9l-.1-.4-.1-.5a4.8 4.8 0 0 1-.1-.7v-.6l-.1-.7-.2-1v-1l-.1-.7-.1-.6v-.4l-.2-.3a.5.5 0 0 1 0-.1v-.5m0-.8a1.2 1.2 0 0 0 0-.4l-.2-.3v-.2c-.1-.1 0 .4-.1.5v.4l-.1.2c-.2 0 0-.4 0-.6v-.8l-.1-1v-.5l-.1-.4-.1-.4v-.7l-.1-.6V433.3l.2-1v-1l.1-.7.1-.8v-1.6m-.3 2.2V428l-.1-.7v-.2m-.1-.8v-11.1l.2-1.3V412.7M.6 85.8v-1l-.1-1.3v-1L.3 82v-2.3s0 0 0 0c.2 0 .1.1.2.5v1.2l-.2.6-.1.4c0 .2 0 .4-.2.7V87l.1.3v-.9l.3-1.2v-.7l.1-.5.1-.7v-6.4l.1-.6.2-.9.5-3.2.2-1.1v-.5s0 0 0 0c-.2 0-.2.2-.2.3l-.1.3a4.2 4.2 0 0 0-.2.4v.4l-.2.3v.4l-.1.5v1a5 5 0 0 1-.1 1v-.5l-.3-1.8v-1.5l.1-1 .2-.7.1-.4.1-.4.1-.3.1-.4.2-.3h0m1.5-12.4a2 2 0 0 1 0 .4l-.2.4-.2.6-.2.7-.2.6v1l-.2.6V61l-.1.4-.2 1.3-.1.5v.4l-.1.3v.5h-.1c-.3.2 0 .9-.1 1v.3c-.1.1-.2.2-.2.5a1.4 1.4 0 0 1 0 .4l-.1.3-.1.3v.3-1.2L1 64l.3-1.4.2-.7.4-1 .5-1.4.4-.8.1-1a5.4 5.4 0 0 1 .2-1l.2-.7v-1.5l.1-.2M65.6 1h3l.2-.1h-.3l-2.4.2h-1.3l-1 .1h2l6.9-.3h1.8l.5-.1H77.8c.3 0 .4.1.5.2h1.5m16-.2h-3.3L92 1H81.5m-2-.4H81m15 .3h3.5l1.8-.2h7.2a1.4 1.4 0 0 0 .2 0M109.6.8h8.5l3.9.1 1.2.1a3 3 0 0 0 .2 0m17.1 0H130l-1 .1H126l-.3-.2h-.1 1l.8-.3h.4l.7-.2h1l.7-.1h4l.4.1h3.5l.6-.1h.5a22.4 22.4 0 0 1 1.2 0h.9l.2.1h.2m-16 .5H123m299.8.1h-2.7l-.9-.1s0 0 0 0c0-.2.3-.2.4-.2h1.4a5.3 5.3 0 0 0 .8 0h-.7l-.9-.1H412m.6 0h-7l-.7-.2H402l-1.2.1h-.7l-.3.1h-2a1.8 1.8 0 0 1-.2-.1s0 0 0 0m.3.6h-9.6V1l1.4-.2a7 7 0 0 0 .8-.1l1.8-.1h5.2-5c-1.2 0-1.4.1-1.7.2l-.8.1h-3.9l-3.6-.1-2.8-.1-2-.1H372h.2m.5.3h-11.3l-2.9-.1h-7.8l-2.4-.1-2.7-.1h-.4M338.7.6h6.4m-6.5.4h-6.2l-2 .2-1.2.1-3 .1-.6-.1c-.2-.1.4-.2.8-.2.3 0 .5 0 .7-.2l3-.1c.8 0 1 0 1.4-.2h1l.6-.1h-6l-2.4.1h-6.6c-.3 0-.9-.2-2.3-.2h-8m-.2.5H304c-.5.1-1 .3-1.8.3l-2.6.2c-.5 0-1-.2-1.3-.3l1.3-.3 2-.2 1.2-.1h-3.7c-1.3 0-1.9.1-2.5.2h-12.1l-2.9-.1H269m.8 0h-4.4c-1.2 0-2 .2-2.3.3l-1 .1h-1l-.4.1h-3L257 1h-.4 1.1l.6-.1a2.4 2.4 0 0 0 .4-.1l.5-.1h.4a4.7 4.7 0 0 1 .6-.1h2.1m-5.3 0h-4c-1.2 0-1.5.1-2 .2l-2.8.1H238l-10.7.1m0-.1h-5.1l-2.8.1-2 .1-1.9.2-1.8.1h-3.6l-1.7-.1c-.4 0-.6-.1-.7-.2L211 1l3-.1h4.2a3.7 3.7 0 0 1 1 0"></path><path d="M209.8 1.1H206l-2.5-.2h-.4 7l.2-.1m-68 .2h21.2l1.9.2h2m-4-.5h4.2l1.6.1 1 .2h.6a58.5 58.5 0 0 0 3 .1l2.3-.2 1-.1 1-.2h1l-2.1.1h-1.5l-3.6.1h-2c-2 0 2.7.1 3.2.2l3.4.1h1.8c1.9.2 3.2 0 3.3 0l1-.2 1.2-.2 2.6-.1-1 .1-1.7.3-3 .1-.8-.1.4-.2h2.1m21 0h-4l-2.4.1-2 .2h-4.1a7 7 0 0 1-2-.2c-.6-.2-1.4 0-1.4 0l1.6-.2 2.6-.2h5.3"></path></g></g><defs><clipPath id="SvgjsClipPath1006"><rect width="512" height="512" fill="#fff" rx="75"></rect></clipPath></defs></svg><style>@media (prefers-color-scheme: light) { :root { filter: none; } }
@media (prefers-color-scheme: dark) { :root { filter: none; } }
</style></svg>